<?xml version="1.0" encoding="UTF-8" standalone="no"?>
<!DOCTYPE svg PUBLIC "-//W3C//DTD SVG 1.1//EN"
 "http://www.w3.org/Graphics/SVG/1.1/DTD/svg11.dtd">
<!-- Generated by graphviz version 2.42.4 (0)
 -->
<!-- Title: G Pages: 1 -->
<svg width="1772pt" height="538pt"
 viewBox="0.00 0.00 1772.00 538.00" xmlns="http://www.w3.org/2000/svg" xmlns:xlink="http://www.w3.org/1999/xlink">
<g id="graph0" class="graph" transform="scale(1 1) rotate(0) translate(4 534)">
<title>G</title>
<polygon fill="white" stroke="transparent" points="-4,4 -4,-534 1768,-534 1768,4 -4,4"/>
<!-- ovya.fr/myrc/app/config -->
<g id="node1" class="node">
<title>ovya.fr/myrc/app/config</title>
<g id="a_node1"><a xlink:href="https://pkg.go.dev/ovya.fr/myrc/app/config" xlink:title="ovya.fr/myrc/app/config\l262 / 6.2KB\l" target="_graphviz">
<polygon fill="none" stroke="#074191" stroke-width="2" stroke-opacity="0.698039" points="1476,-202 1332,-202 1332,-166 1476,-166 1476,-202"/>
<text text-anchor="start" x="1340" y="-187" font-family="Times,serif" font-size="10.00">ovya.fr/myrc/app/config</text>
<text text-anchor="start" x="1340" y="-176" font-family="Times,serif" font-size="10.00">262 / 6.2KB</text>
</a>
</g>
</g>
<!-- ovya.fr/myrc/util/file -->
<g id="node13" class="node">
<title>ovya.fr/myrc/util/file</title>
<g id="a_node13"><a xlink:href="https://pkg.go.dev/ovya.fr/myrc/util/file" xlink:title="ovya.fr/myrc/util/file\l190 / 5.3KB\l" target="_graphviz">
<polygon fill="none" stroke="#839107" stroke-width="2" stroke-opacity="0.698039" points="1728,-202 1620,-202 1620,-166 1728,-166 1728,-202"/>
<text text-anchor="start" x="1628" y="-187" font-family="Times,serif" font-size="10.00">ovya.fr/myrc/util/file</text>
<text text-anchor="start" x="1628" y="-176" font-family="Times,serif" font-size="10.00">190 / 5.3KB</text>
</a>
</g>
</g>
<!-- ovya.fr/myrc/app/config&#45;&gt;ovya.fr/myrc/util/file -->
<g id="edge1" class="edge">
<title>ovya.fr/myrc/app/config:e&#45;&gt;ovya.fr/myrc/util/file</title>
<path fill="none" stroke="#839107" stroke-width="2" stroke-opacity="0.698039" d="M1476,-184C1520.74,-184 1571.19,-184 1609.84,-184"/>
<polygon fill="#839107" fill-opacity="0.698039" stroke="#839107" stroke-width="2" stroke-opacity="0.698039" points="1609.91,-187.5 1619.91,-184 1609.91,-180.5 1609.91,-187.5"/>
</g>
<!-- ovya.fr/myrc/app/errors -->
<g id="node2" class="node">
<title>ovya.fr/myrc/app/errors</title>
<g id="a_node2"><a xlink:href="https://pkg.go.dev/ovya.fr/myrc/app/errors" xlink:title="ovya.fr/myrc/app/errors\l11 / 397B\l" target="_graphviz">
<polygon fill="none" stroke="#8b9107" stroke-width="2" stroke-opacity="0.698039" points="1746,-530 1602,-530 1602,-494 1746,-494 1746,-530"/>
<text text-anchor="start" x="1610" y="-515" font-family="Times,serif" font-size="10.00">ovya.fr/myrc/app/errors</text>
<text text-anchor="start" x="1610" y="-504" font-family="Times,serif" font-size="10.00">11 / 397B</text>
</a>
</g>
</g>
<!-- ovya.fr/myrc/app/server -->
<g id="node3" class="node">
<title>ovya.fr/myrc/app/server</title>
<g id="a_node3"><a xlink:href="https://pkg.go.dev/ovya.fr/myrc/app/server" xlink:title="ovya.fr/myrc/app/server\l148 / 4.8KB\l" target="_graphviz">
<polygon fill="none" stroke="#079119" stroke-width="2" stroke-opacity="0.698039" points="396,-335 252,-335 252,-299 396,-299 396,-335"/>
<text text-anchor="start" x="260" y="-320" font-family="Times,serif" font-size="10.00">ovya.fr/myrc/app/server</text>
<text text-anchor="start" x="260" y="-309" font-family="Times,serif" font-size="10.00">148 / 4.8KB</text>
</a>
</g>
</g>
<!-- ovya.fr/myrc/app/server&#45;&gt;ovya.fr/myrc/app/config -->
<g id="edge2" class="edge">
<title>ovya.fr/myrc/app/server:e&#45;&gt;ovya.fr/myrc/app/config</title>
<path fill="none" stroke="#074191" stroke-width="2" stroke-opacity="0.698039" d="M396,-317C445.48,-317 455.94,-301.76 504,-290 631.85,-258.7 662.01,-241.63 792,-221 918.82,-200.87 951.84,-205.89 1080,-198 1162.16,-192.94 1256.19,-189.08 1321.52,-186.71"/>
<polygon fill="#074191" fill-opacity="0.698039" stroke="#074191" stroke-width="2" stroke-opacity="0.698039" points="1321.89,-190.2 1331.76,-186.34 1321.64,-183.21 1321.89,-190.2"/>
</g>
<!-- ovya.fr/myrc/app/server/handlers -->
<g id="node5" class="node">
<title>ovya.fr/myrc/app/server/handlers</title>
<g id="a_node5"><a xlink:href="https://pkg.go.dev/ovya.fr/myrc/app/server/handlers" xlink:title="ovya.fr/myrc/app/server/handlers\l684 / 18.7KB\l" target="_graphviz">
<polygon fill="none" stroke="#072a91" stroke-width="2" stroke-opacity="0.698039" points="684,-335 504,-335 504,-299 684,-299 684,-335"/>
<text text-anchor="start" x="512" y="-320" font-family="Times,serif" font-size="10.00">ovya.fr/myrc/app/server/handlers</text>
<text text-anchor="start" x="512" y="-309" font-family="Times,serif" font-size="10.00">684 / 18.7KB</text>
</a>
</g>
</g>
<!-- ovya.fr/myrc/app/server&#45;&gt;ovya.fr/myrc/app/server/handlers -->
<g id="edge3" class="edge">
<title>ovya.fr/myrc/app/server:e&#45;&gt;ovya.fr/myrc/app/server/handlers</title>
<path fill="none" stroke="#072a91" stroke-width="2" stroke-opacity="0.698039" d="M396,-317C427.79,-317 462.46,-317 493.73,-317"/>
<polygon fill="#072a91" fill-opacity="0.698039" stroke="#072a91" stroke-width="2" stroke-opacity="0.698039" points="493.76,-320.5 503.76,-317 493.76,-313.5 493.76,-320.5"/>
</g>
<!-- ovya.fr/myrc/app/server/middleware -->
<g id="node6" class="node">
<title>ovya.fr/myrc/app/server/middleware</title>
<g id="a_node6"><a xlink:href="https://pkg.go.dev/ovya.fr/myrc/app/server/middleware" xlink:title="ovya.fr/myrc/app/server/middleware\l205 / 5.5KB\l" target="_graphviz">
<polygon fill="none" stroke="#330791" stroke-width="2" stroke-opacity="0.698039" points="972,-419 792,-419 792,-383 972,-383 972,-419"/>
<text text-anchor="start" x="800" y="-404" font-family="Times,serif" font-size="10.00">ovya.fr/myrc/app/server/middleware</text>
<text text-anchor="start" x="800" y="-393" font-family="Times,serif" font-size="10.00">205 / 5.5KB</text>
</a>
</g>
</g>
<!-- ovya.fr/myrc/app/server&#45;&gt;ovya.fr/myrc/app/server/middleware -->
<g id="edge4" class="edge">
<title>ovya.fr/myrc/app/server:e&#45;&gt;ovya.fr/myrc/app/server/middleware</title>
<path fill="none" stroke="#330791" stroke-width="2" stroke-opacity="0.698039" d="M396,-317C445.48,-317 455.48,-334.29 504,-344 597.64,-362.74 705.48,-378.46 781.76,-388.61"/>
<polygon fill="#330791" fill-opacity="0.698039" stroke="#330791" stroke-width="2" stroke-opacity="0.698039" points="781.47,-392.11 791.84,-389.95 782.39,-385.17 781.47,-392.11"/>
</g>
<!-- ovya.fr/myrc/app/server/utils -->
<g id="node8" class="node">
<title>ovya.fr/myrc/app/server/utils</title>
<g id="a_node8"><a xlink:href="https://pkg.go.dev/ovya.fr/myrc/app/server/utils" xlink:title="ovya.fr/myrc/app/server/utils\l260 / 7.3KB\l" target="_graphviz">
<polygon fill="none" stroke="#559107" stroke-width="2" stroke-opacity="0.698039" points="1224,-438 1080,-438 1080,-402 1224,-402 1224,-438"/>
<text text-anchor="start" x="1088" y="-423" font-family="Times,serif" font-size="10.00">ovya.fr/myrc/app/server/utils</text>
<text text-anchor="start" x="1088" y="-412" font-family="Times,serif" font-size="10.00">260 / 7.3KB</text>
</a>
</g>
</g>
<!-- ovya.fr/myrc/app/server&#45;&gt;ovya.fr/myrc/app/server/utils -->
<g id="edge5" class="edge">
<title>ovya.fr/myrc/app/server:e&#45;&gt;ovya.fr/myrc/app/server/utils</title>
<path fill="none" stroke="#559107" stroke-width="2" stroke-opacity="0.698039" d="M396,-317C450.07,-317 452.91,-355.3 504,-373 701.89,-441.56 762.62,-432.68 972,-428 1003.85,-427.29 1038.87,-425.87 1069.42,-424.41"/>
<polygon fill="#559107" fill-opacity="0.698039" stroke="#559107" stroke-width="2" stroke-opacity="0.698039" points="1069.78,-427.9 1079.6,-423.92 1069.44,-420.91 1069.78,-427.9"/>
</g>
<!-- ovya.fr/myrc/app/server/errors -->
<g id="node4" class="node">
<title>ovya.fr/myrc/app/server/errors</title>
<g id="a_node4"><a xlink:href="https://pkg.go.dev/ovya.fr/myrc/app/server/errors" xlink:title="ovya.fr/myrc/app/server/errors\l87 / 2.7KB\l" target="_graphviz">
<polygon fill="none" stroke="#077e91" stroke-width="2" stroke-opacity="0.698039" points="1476,-530 1332,-530 1332,-494 1476,-494 1476,-530"/>
<text text-anchor="start" x="1340" y="-515" font-family="Times,serif" font-size="10.00">ovya.fr/myrc/app/server/errors</text>
<text text-anchor="start" x="1340" y="-504" font-family="Times,serif" font-size="10.00">87 / 2.7KB</text>
</a>
</g>
</g>
<!-- ovya.fr/myrc/app/server/errors&#45;&gt;ovya.fr/myrc/app/errors -->
<g id="edge6" class="edge">
<title>ovya.fr/myrc/app/server/errors:e&#45;&gt;ovya.fr/myrc/app/errors</title>
<path fill="none" stroke="#8b9107" stroke-width="2" stroke-opacity="0.698039" d="M1476,-512C1513.98,-512 1556.07,-512 1591.57,-512"/>
<polygon fill="#8b9107" fill-opacity="0.698039" stroke="#8b9107" stroke-width="2" stroke-opacity="0.698039" points="1591.88,-515.5 1601.88,-512 1591.88,-508.5 1591.88,-515.5"/>
</g>
<!-- ovya.fr/myrc/app/server/models -->
<g id="node7" class="node">
<title>ovya.fr/myrc/app/server/models</title>
<g id="a_node7"><a xlink:href="https://pkg.go.dev/ovya.fr/myrc/app/server/models" xlink:title="ovya.fr/myrc/app/server/models\l34 / 0.7KB\l" target="_graphviz">
<polygon fill="none" stroke="#077291" stroke-width="2" stroke-opacity="0.698039" points="1764,-434 1584,-434 1584,-398 1764,-398 1764,-434"/>
<text text-anchor="start" x="1592" y="-419" font-family="Times,serif" font-size="10.00">ovya.fr/myrc/app/server/models</text>
<text text-anchor="start" x="1592" y="-408" font-family="Times,serif" font-size="10.00">34 / 0.7KB</text>
</a>
</g>
</g>
<!-- ovya.fr/myrc/app/server/errors&#45;&gt;ovya.fr/myrc/app/server/models -->
<g id="edge7" class="edge">
<title>ovya.fr/myrc/app/server/errors:e&#45;&gt;ovya.fr/myrc/app/server/models</title>
<path fill="none" stroke="#077291" stroke-width="2" stroke-opacity="0.698039" d="M1476,-512C1541.16,-512 1607.31,-469.03 1643.96,-440.59"/>
<polygon fill="#077291" fill-opacity="0.698039" stroke="#077291" stroke-width="2" stroke-opacity="0.698039" points="1646.53,-443.01 1652.19,-434.06 1642.18,-437.53 1646.53,-443.01"/>
</g>
<!-- ovya.fr/myrc/app/server/handlers&#45;&gt;ovya.fr/myrc/app/config -->
<g id="edge8" class="edge">
<title>ovya.fr/myrc/app/server/handlers:e&#45;&gt;ovya.fr/myrc/app/config</title>
<path fill="none" stroke="#074191" stroke-width="2" stroke-opacity="0.698039" d="M684,-317C741.44,-317 737.87,-265.23 792,-246 816.59,-237.26 1161.08,-205.61 1321.67,-191.22"/>
<polygon fill="#074191" fill-opacity="0.698039" stroke="#074191" stroke-width="2" stroke-opacity="0.698039" points="1322.33,-194.67 1331.98,-190.3 1321.7,-187.7 1322.33,-194.67"/>
</g>
<!-- ovya.fr/myrc/app/server/handlers&#45;&gt;ovya.fr/myrc/app/server/errors -->
<g id="edge9" class="edge">
<title>ovya.fr/myrc/app/server/handlers:e&#45;&gt;ovya.fr/myrc/app/server/errors</title>
<path fill="none" stroke="#077e91" stroke-width="2" stroke-opacity="0.698039" d="M684,-317C752.83,-317 731.12,-395.88 792,-428 964.02,-518.76 1199.54,-523.01 1321.84,-517.83"/>
<polygon fill="#077e91" fill-opacity="0.698039" stroke="#077e91" stroke-width="2" stroke-opacity="0.698039" points="1322.05,-521.32 1331.88,-517.37 1321.73,-514.33 1322.05,-521.32"/>
</g>
<!-- ovya.fr/myrc/app/server/handlers&#45;&gt;ovya.fr/myrc/app/server/middleware -->
<g id="edge10" class="edge">
<title>ovya.fr/myrc/app/server/handlers:e&#45;&gt;ovya.fr/myrc/app/server/middleware</title>
<path fill="none" stroke="#330791" stroke-width="2" stroke-opacity="0.698039" d="M684,-317C737.27,-317 742.87,-348.4 792,-369 800.45,-372.54 809.45,-376.06 818.35,-379.4"/>
<polygon fill="#330791" fill-opacity="0.698039" stroke="#330791" stroke-width="2" stroke-opacity="0.698039" points="817.35,-382.76 827.94,-382.94 819.78,-376.19 817.35,-382.76"/>
</g>
<!-- ovya.fr/myrc/app/server/handlers&#45;&gt;ovya.fr/myrc/app/server/models -->
<g id="edge11" class="edge">
<title>ovya.fr/myrc/app/server/handlers:e&#45;&gt;ovya.fr/myrc/app/server/models</title>
<path fill="none" stroke="#077291" stroke-width="2" stroke-opacity="0.698039" d="M684,-317C1037.22,-317 1125.96,-335.67 1476,-383 1507.94,-387.32 1542.65,-392.85 1573.92,-398.15"/>
<polygon fill="#077291" fill-opacity="0.698039" stroke="#077291" stroke-width="2" stroke-opacity="0.698039" points="1573.49,-401.62 1583.94,-399.86 1574.67,-394.72 1573.49,-401.62"/>
</g>
<!-- ovya.fr/myrc/app/server/handlers&#45;&gt;ovya.fr/myrc/app/server/utils -->
<g id="edge12" class="edge">
<title>ovya.fr/myrc/app/server/handlers:e&#45;&gt;ovya.fr/myrc/app/server/utils</title>
<path fill="none" stroke="#559107" stroke-width="2" stroke-opacity="0.698039" d="M684,-317C759.66,-317 964.28,-369.2 1075.89,-399.28"/>
<polygon fill="#559107" fill-opacity="0.698039" stroke="#559107" stroke-width="2" stroke-opacity="0.698039" points="1075.17,-402.71 1085.74,-401.94 1077,-395.95 1075.17,-402.71"/>
</g>
<!-- ovya.fr/myrc/app/server/handlers&#45;&gt;ovya.fr/myrc/util/file -->
<g id="edge13" class="edge">
<title>ovya.fr/myrc/app/server/handlers:e&#45;&gt;ovya.fr/myrc/util/file</title>
<path fill="none" stroke="#839107" stroke-width="2" stroke-opacity="0.698039" d="M684,-317C867.09,-317 1422.02,-226.34 1609.98,-194.72"/>
<polygon fill="#839107" fill-opacity="0.698039" stroke="#839107" stroke-width="2" stroke-opacity="0.698039" points="1610.69,-198.15 1619.97,-193.04 1609.53,-191.25 1610.69,-198.15"/>
</g>
<!-- ovya.fr/myrc/app/server/middleware&#45;&gt;ovya.fr/myrc/app/config -->
<g id="edge14" class="edge">
<title>ovya.fr/myrc/app/server/middleware:e&#45;&gt;ovya.fr/myrc/app/config</title>
<path fill="none" stroke="#074191" stroke-width="2" stroke-opacity="0.698039" d="M972,-401C1014.75,-401 1263.36,-263.03 1362.35,-207.12"/>
<polygon fill="#074191" fill-opacity="0.698039" stroke="#074191" stroke-width="2" stroke-opacity="0.698039" points="1364.19,-210.1 1371.17,-202.13 1360.75,-204 1364.19,-210.1"/>
</g>
<!-- ovya.fr/myrc/app/server/middleware&#45;&gt;ovya.fr/myrc/app/server/errors -->
<g id="edge15" class="edge">
<title>ovya.fr/myrc/app/server/middleware:e&#45;&gt;ovya.fr/myrc/app/server/errors</title>
<path fill="none" stroke="#077e91" stroke-width="2" stroke-opacity="0.698039" d="M972,-401C1024.17,-401 1030.17,-431.55 1080,-447 1160.68,-472.01 1255.76,-489.8 1321.77,-500.37"/>
<polygon fill="#077e91" fill-opacity="0.698039" stroke="#077e91" stroke-width="2" stroke-opacity="0.698039" points="1321.28,-503.83 1331.71,-501.94 1322.38,-496.92 1321.28,-503.83"/>
</g>
<!-- ovya.fr/myrc/app/server/middleware&#45;&gt;ovya.fr/myrc/app/server/models -->
<g id="edge16" class="edge">
<title>ovya.fr/myrc/app/server/middleware:e&#45;&gt;ovya.fr/myrc/app/server/models</title>
<path fill="none" stroke="#077291" stroke-width="2" stroke-opacity="0.698039" d="M972,-401C1020.13,-401 1031.9,-394.78 1080,-393 1255.88,-386.49 1300.3,-382.78 1476,-393 1507.95,-394.86 1542.67,-398.4 1573.93,-402.16"/>
<polygon fill="#077291" fill-opacity="0.698039" stroke="#077291" stroke-width="2" stroke-opacity="0.698039" points="1573.6,-405.64 1583.95,-403.38 1574.45,-398.69 1573.6,-405.64"/>
</g>
<!-- ovya.fr/myrc/app/server/middleware&#45;&gt;ovya.fr/myrc/app/server/utils -->
<g id="edge17" class="edge">
<title>ovya.fr/myrc/app/server/middleware:e&#45;&gt;ovya.fr/myrc/app/server/utils</title>
<path fill="none" stroke="#559107" stroke-width="2" stroke-opacity="0.698039" d="M972,-401C1004.01,-401 1039.06,-404.04 1069.59,-407.69"/>
<polygon fill="#559107" fill-opacity="0.698039" stroke="#559107" stroke-width="2" stroke-opacity="0.698039" points="1069.41,-411.19 1079.76,-408.95 1070.26,-404.25 1069.41,-411.19"/>
</g>
<!-- ovya.fr/myrc/app/server/utils&#45;&gt;ovya.fr/myrc/app/config -->
<g id="edge18" class="edge">
<title>ovya.fr/myrc/app/server/utils:e&#45;&gt;ovya.fr/myrc/app/config</title>
<path fill="none" stroke="#074191" stroke-width="2" stroke-opacity="0.698039" d="M1224,-420C1327.3,-420 1378.7,-274.69 1396.05,-212.11"/>
<polygon fill="#074191" fill-opacity="0.698039" stroke="#074191" stroke-width="2" stroke-opacity="0.698039" points="1399.51,-212.69 1398.72,-202.13 1392.75,-210.88 1399.51,-212.69"/>
</g>
<!-- ovya.fr/myrc/app/server/utils&#45;&gt;ovya.fr/myrc/app/server/errors -->
<g id="edge19" class="edge">
<title>ovya.fr/myrc/app/server/utils:e&#45;&gt;ovya.fr/myrc/app/server/errors</title>
<path fill="none" stroke="#077e91" stroke-width="2" stroke-opacity="0.698039" d="M1224,-420C1278.91,-420 1282.93,-455.36 1332,-480 1338.48,-483.25 1345.36,-486.55 1352.19,-489.72"/>
<polygon fill="#077e91" fill-opacity="0.698039" stroke="#077e91" stroke-width="2" stroke-opacity="0.698039" points="1350.88,-492.97 1361.43,-493.96 1353.8,-486.61 1350.88,-492.97"/>
</g>
<!-- ovya.fr/myrc/app/server/utils&#45;&gt;ovya.fr/myrc/app/server/models -->
<g id="edge20" class="edge">
<title>ovya.fr/myrc/app/server/utils:e&#45;&gt;ovya.fr/myrc/app/server/models</title>
<path fill="none" stroke="#077291" stroke-width="2" stroke-opacity="0.698039" d="M1224,-420C1273.48,-420 1282.89,-440.95 1332,-447 1395.52,-454.82 1412.19,-451.99 1476,-447 1507.92,-444.5 1542.5,-439.76 1573.63,-434.73"/>
<polygon fill="#077291" fill-opacity="0.698039" stroke="#077291" stroke-width="2" stroke-opacity="0.698039" points="1574.32,-438.16 1583.62,-433.09 1573.18,-431.26 1574.32,-438.16"/>
</g>
<!-- ovya.fr/myrc/util/stringutils -->
<g id="node14" class="node">
<title>ovya.fr/myrc/util/stringutils</title>
<g id="a_node14"><a xlink:href="https://pkg.go.dev/ovya.fr/myrc/util/stringutils" xlink:title="ovya.fr/myrc/util/stringutils\l22 / 467B\l" target="_graphviz">
<polygon fill="none" stroke="#8b9107" stroke-width="2" stroke-opacity="0.698039" points="1476,-438 1332,-438 1332,-402 1476,-402 1476,-438"/>
<text text-anchor="start" x="1340" y="-423" font-family="Times,serif" font-size="10.00">ovya.fr/myrc/util/stringutils</text>
<text text-anchor="start" x="1340" y="-412" font-family="Times,serif" font-size="10.00">22 / 467B</text>
</a>
</g>
</g>
<!-- ovya.fr/myrc/app/server/utils&#45;&gt;ovya.fr/myrc/util/stringutils -->
<g id="edge21" class="edge">
<title>ovya.fr/myrc/app/server/utils:e&#45;&gt;ovya.fr/myrc/util/stringutils</title>
<path fill="none" stroke="#8b9107" stroke-width="2" stroke-opacity="0.698039" d="M1224,-420C1255.83,-420 1290.84,-420 1321.4,-420"/>
<polygon fill="#8b9107" fill-opacity="0.698039" stroke="#8b9107" stroke-width="2" stroke-opacity="0.698039" points="1321.58,-423.5 1331.58,-420 1321.58,-416.5 1321.58,-423.5"/>
</g>
<!-- ovya.fr/myrc/cmd/myrc&#45;cookie -->
<g id="node9" class="node">
<title>ovya.fr/myrc/cmd/myrc&#45;cookie</title>
<g id="a_node9"><a xlink:href="https://pkg.go.dev/ovya.fr/myrc/cmd/myrc-cookie" xlink:title="ovya.fr/myrc/cmd/myrc&#45;cookie\l21 / 513B\l" target="_graphviz">
<polygon fill="none" stroke="#400791" stroke-width="2" stroke-opacity="0.698039" points="1224,-102 1080,-102 1080,-66 1224,-66 1224,-102"/>
<text text-anchor="start" x="1088" y="-87" font-family="Times,serif" font-size="10.00">ovya.fr/myrc/cmd/myrc&#45;cookie</text>
<text text-anchor="start" x="1088" y="-76" font-family="Times,serif" font-size="10.00">21 / 513B</text>
</a>
</g>
</g>
<!-- ovya.fr/myrc/cmd/myrc&#45;cookie&#45;&gt;ovya.fr/myrc/app/config -->
<g id="edge22" class="edge">
<title>ovya.fr/myrc/cmd/myrc&#45;cookie:e&#45;&gt;ovya.fr/myrc/app/config</title>
<path fill="none" stroke="#074191" stroke-width="2" stroke-opacity="0.698039" d="M1224,-84C1285.04,-84 1344.61,-128.86 1377.3,-158.49"/>
<polygon fill="#074191" fill-opacity="0.698039" stroke="#074191" stroke-width="2" stroke-opacity="0.698039" points="1375.31,-161.42 1385.02,-165.66 1380.08,-156.29 1375.31,-161.42"/>
</g>
<!-- ovya.fr/myrc/cmd/myrc&#45;migrate -->
<g id="node10" class="node">
<title>ovya.fr/myrc/cmd/myrc&#45;migrate</title>
<g id="a_node10"><a xlink:href="https://pkg.go.dev/ovya.fr/myrc/cmd/myrc-migrate" xlink:title="ovya.fr/myrc/cmd/myrc&#45;migrate\l8 / 123B\l" target="_graphviz">
<polygon fill="none" stroke="#072191" stroke-width="2" stroke-opacity="0.698039" points="972,-156 792,-156 792,-120 972,-120 972,-156"/>
<text text-anchor="start" x="800" y="-141" font-family="Times,serif" font-size="10.00">ovya.fr/myrc/cmd/myrc&#45;migrate</text>
<text text-anchor="start" x="800" y="-130" font-family="Times,serif" font-size="10.00">8 / 123B</text>
</a>
</g>
</g>
<!-- ovya.fr/myrc/migrate -->
<g id="node12" class="node">
<title>ovya.fr/myrc/migrate</title>
<g id="a_node12"><a xlink:href="https://pkg.go.dev/ovya.fr/myrc/migrate" xlink:title="ovya.fr/myrc/migrate\l119 / 3.3KB\l" target="_graphviz">
<polygon fill="none" stroke="#91073d" stroke-width="2" stroke-opacity="0.698039" points="1206,-156 1098,-156 1098,-120 1206,-120 1206,-156"/>
<text text-anchor="start" x="1106" y="-141" font-family="Times,serif" font-size="10.00">ovya.fr/myrc/migrate</text>
<text text-anchor="start" x="1106" y="-130" font-family="Times,serif" font-size="10.00">119 / 3.3KB</text>
</a>
</g>
</g>
<!-- ovya.fr/myrc/cmd/myrc&#45;migrate&#45;&gt;ovya.fr/myrc/migrate -->
<g id="edge23" class="edge">
<title>ovya.fr/myrc/cmd/myrc&#45;migrate:e&#45;&gt;ovya.fr/myrc/migrate</title>
<path fill="none" stroke="#91073d" stroke-width="2" stroke-opacity="0.698039" d="M972,-138C1010.3,-138 1053.21,-138 1087.42,-138"/>
<polygon fill="#91073d" fill-opacity="0.698039" stroke="#91073d" stroke-width="2" stroke-opacity="0.698039" points="1087.74,-141.5 1097.74,-138 1087.74,-134.5 1087.74,-141.5"/>
</g>
<!-- ovya.fr/myrc/cmd/myrc&#45;server -->
<g id="node11" class="node">
<title>ovya.fr/myrc/cmd/myrc&#45;server</title>
<g id="a_node11"><a xlink:href="https://pkg.go.dev/ovya.fr/myrc/cmd/myrc-server" xlink:title="ovya.fr/myrc/cmd/myrc&#45;server\l17 / 491B\l" target="_graphviz">
<polygon fill="none" stroke="#079120" stroke-width="2" stroke-opacity="0.698039" points="144,-205 0,-205 0,-169 144,-169 144,-205"/>
<text text-anchor="start" x="8" y="-190" font-family="Times,serif" font-size="10.00">ovya.fr/myrc/cmd/myrc&#45;server</text>
<text text-anchor="start" x="8" y="-179" font-family="Times,serif" font-size="10.00">17 / 491B</text>
</a>
</g>
</g>
<!-- ovya.fr/myrc/cmd/myrc&#45;server&#45;&gt;ovya.fr/myrc/app/config -->
<g id="edge24" class="edge">
<title>ovya.fr/myrc/cmd/myrc&#45;server:e&#45;&gt;ovya.fr/myrc/app/config</title>
<path fill="none" stroke="#074191" stroke-width="2" stroke-opacity="0.698039" d="M144,-187C354.26,-187 382.74,-38 593,-38 593,-38 593,-38 883,-38 1034.79,-38 1080.72,-6.9 1224,-57 1285.94,-78.66 1345.54,-128.64 1377.92,-159.04"/>
<polygon fill="#074191" fill-opacity="0.698039" stroke="#074191" stroke-width="2" stroke-opacity="0.698039" points="1375.52,-161.59 1385.17,-165.95 1380.35,-156.52 1375.52,-161.59"/>
</g>
<!-- ovya.fr/myrc/cmd/myrc&#45;server&#45;&gt;ovya.fr/myrc/app/server -->
<g id="edge25" class="edge">
<title>ovya.fr/myrc/cmd/myrc&#45;server:e&#45;&gt;ovya.fr/myrc/app/server</title>
<path fill="none" stroke="#079119" stroke-width="2" stroke-opacity="0.698039" d="M144,-187C213.99,-187 275.03,-252.86 304.4,-290.83"/>
<polygon fill="#079119" fill-opacity="0.698039" stroke="#079119" stroke-width="2" stroke-opacity="0.698039" points="301.7,-293.05 310.52,-298.92 307.28,-288.83 301.7,-293.05"/>
</g>
<!-- ovya.fr/myrc/cmd/myrc&#45;server&#45;&gt;ovya.fr/myrc/app/server/middleware -->
<g id="edge26" class="edge">
<title>ovya.fr/myrc/cmd/myrc&#45;server:e&#45;&gt;ovya.fr/myrc/app/server/middleware</title>
<path fill="none" stroke="#330791" stroke-width="2" stroke-opacity="0.698039" d="M144,-187C228.69,-187 179.42,-300.35 252,-344 416.62,-442.99 650.49,-433.19 781.74,-417.14"/>
<polygon fill="#330791" fill-opacity="0.698039" stroke="#330791" stroke-width="2" stroke-opacity="0.698039" points="782.3,-420.6 791.79,-415.87 781.43,-413.65 782.3,-420.6"/>
</g>
<!-- ovya.fr/myrc/cmd/myrc&#45;server&#45;&gt;ovya.fr/myrc/util/file -->
<g id="edge27" class="edge">
<title>ovya.fr/myrc/cmd/myrc&#45;server:e&#45;&gt;ovya.fr/myrc/util/file</title>
<path fill="none" stroke="#839107" stroke-width="2" stroke-opacity="0.698039" d="M144,-187C207.05,-187 196.32,-124.6 252,-95 390.92,-21.15 435.67,0 593,0 593,0 593,0 1153,0 1343.57,0 1552.08,-111.18 1635.48,-160.7"/>
<polygon fill="#839107" fill-opacity="0.698039" stroke="#839107" stroke-width="2" stroke-opacity="0.698039" points="1633.72,-163.72 1644.1,-165.85 1637.31,-157.71 1633.72,-163.72"/>
</g>
<!-- ovya.fr/myrc/migrate&#45;&gt;ovya.fr/myrc/app/config -->
<g id="edge28" class="edge">
<title>ovya.fr/myrc/migrate:e&#45;&gt;ovya.fr/myrc/app/config</title>
<path fill="none" stroke="#074191" stroke-width="2" stroke-opacity="0.698039" d="M1207,-138C1254,-138 1305.71,-150.69 1344.21,-162.75"/>
<polygon fill="#074191" fill-opacity="0.698039" stroke="#074191" stroke-width="2" stroke-opacity="0.698039" points="1343.61,-166.23 1354.2,-165.95 1345.75,-159.56 1343.61,-166.23"/>
</g>
</g>
</svg>
