<?xml version="1.0" encoding="UTF-8" standalone="no"?>
<!-- Created with Inkscape (http://www.inkscape.org/) -->

<svg
   version="1.1"
   id="svg2"
   width="328"
   height="395"
   viewBox="0 0 328 395"
   sodipodi:docname="sun-wukong-calligraphie.svg"
   inkscape:version="1.2.2 (b0a8486541, 2022-12-01)"
   xmlns:inkscape="http://www.inkscape.org/namespaces/inkscape"
   xmlns:sodipodi="http://sodipodi.sourceforge.net/DTD/sodipodi-0.dtd"
   xmlns="http://www.w3.org/2000/svg"
   xmlns:svg="http://www.w3.org/2000/svg">
  <defs
     id="defs6" />
  <sodipodi:namedview
     id="namedview4"
     pagecolor="#ffffff"
     bordercolor="#666666"
     borderopacity="1.0"
     inkscape:showpageshadow="2"
     inkscape:pageopacity="0.0"
     inkscape:pagecheckerboard="0"
     inkscape:deskcolor="#d1d1d1"
     showgrid="false"
     inkscape:zoom="1.2003863"
     inkscape:cx="0"
     inkscape:cy="263.24859"
     inkscape:window-width="1918"
     inkscape:window-height="1054"
     inkscape:window-x="0"
     inkscape:window-y="24"
     inkscape:window-maximized="1"
     inkscape:current-layer="g8" />
  <g
     inkscape:groupmode="layer"
     inkscape:label="Image"
     id="g8">
    <path
       style="fill:#0c0c0c;stroke:none"
       d="m 214,109 -19,6 8,25 -15,-18 c -3.446,0.997 -13.035,8.58 -11.5,13 0.781,2.249 3.865,4.365 5.5,6 7.01,7.01 15.974,12.208 26,13 l -1,14 -21,-15 -9,-9 c 6.005,16.299 18.342,32.252 36,36.667 6.418,1.604 11.602,0.333 18,0.333 v -1 c -9.429,-6.7 -11.077,-16.84 -1,-24 v -2 c -11.333,-4.175 -19.237,-19.169 -7,-27.667 7.768,-5.394 18.956,-5.333 28,-5.333 l -2,-15 c -6.051,0 -14.202,1.438 -20,-0.333 -6.111,-1.868 -12.224,-5.773 -18,-8.5003 -10.926,-5.1595 -22.108,-9.8566 -33,-15 L 99,44.8333 C 87.6712,39.4836 76.5687,33.1537 65,28.3333 50.3514,22.2297 36.8275,13.7663 22,8 18.4615,6.62393 8.41635,-0.725311 7.16667,7 6.48411,11.2194 16.192,13.7627 19,15.1667 c 12.2594,6.1296 24.7261,11.863 37,18 38.2831,19.1415 77.333,37.4074 116,55.6666 10.255,4.8427 20.767,9.0257 31,13.9997 3.661,1.78 8.608,2.905 11,6.167 M 107,65 c 3.773,9.5577 11.682,17.7134 17.667,26 13.193,18.267 23.332,37.308 31.666,58 4.839,12.013 8.942,25.882 7.667,39 -0.893,9.183 -4.594,17.851 -10.333,25 -2.933,3.653 -8.266,5.544 -9.667,10 22.134,0 28,-25.235 28,-43 0,-15.258 -5.434,-29.448 -11.833,-43 -7.812,-16.542 -16.616,-32.316 -27.834,-47 -3.173,-4.1544 -6.765,-7.9147 -10,-12 C 118.143,72.7069 114.368,65.5817 107,65 m 133,115 c 3.92,6.236 13.96,8.858 16.667,0 1.959,-6.411 -0.312,-14.365 0.333,-21 0.657,-6.758 6.322,-12.023 7,-19 0.797,-8.197 -3.589,-16.223 -2.833,-24 0.56,-5.765 6.168,-11.178 8.833,-16 -2.382,0.188 -3.865,0.796 -6,1.833 -2.698,1.312 -7.845,2.667 -9.5,5.334 -1.567,2.524 0.137,6.222 0.5,8.833 0.937,6.744 4.322,15.255 3.667,22 -0.731,7.516 -5.923,13.343 -6.667,21 -0.483,4.964 2.678,18.44 -2.167,21.5 -2.65,1.674 -7.016,-0.278 -9.833,-0.5 m 27,-55 1.5,10.667 6.833,6.333 -2.166,6 -13.167,13 1,10 c 8.466,-1.782 15.426,-10.899 19.667,-18 1.243,-2.082 1.962,-5.095 3.666,-6.833 3.871,-3.948 9.907,-1.949 10.667,-9.167 l -28,-12 m -34,11.333 c -3.021,1.238 -2.155,5.315 -1.167,7.667 1.959,4.659 10.298,12.606 16,8.5 2.239,-1.612 0.907,-5.451 0.167,-7.5 -1.771,-4.905 -9.328,-10.991 -15,-8.667 M 134,165 137.667,177 137,190 c 8.732,-3.217 14.48,-5.754 24,-4 0,-3.647 0.821,-8.702 -1.5,-11.833 -4.612,-6.222 -18.374,-7.854 -25.5,-9.167 m 47,8 c 3.047,16.54 -1.802,27.605 -9,42 17.562,-1.387 23.156,-33.102 9,-42 m -167,3 v 1 c 8.4168,4.208 21.9242,9.934 23,21 0.8485,8.728 -11.1622,15.658 -14.8333,23 C 13.8526,237.628 20.695,258.739 35,269.667 49.9799,281.11 71.1446,282.264 89,284 c 19.042,1.851 37.953,5.148 57,7 16.049,1.56 33.658,1.768 48,10.333 17.56,10.487 31.956,26.086 47,39.667 8.616,7.778 18.395,14.231 27,22 5.909,5.335 12.063,11.501 16.667,18 1.926,2.719 3.332,6.833 7.333,7 5.831,0.243 9.724,-7.371 13,-11 3.617,-4.006 8.404,-6.649 11.667,-11 5.166,-6.889 5.044,-16.579 1.333,-24 -5.055,5.853 -3.139,14.939 -12,19 -11.424,5.236 -19.445,-7.581 -27,-13.667 -6.28,-5.059 -11.613,-11.366 -17,-17.333 -7.08,-7.842 -15.003,-14.938 -21.833,-23 -4.465,-5.27 -9.538,-9.872 -14.167,-15 -2.225,-2.464 -3.907,-5.953 -7,-7.5 -2.812,-1.406 -7.125,-0.432 -10,0.167 -5.892,1.227 -12.03,2.753 -18,3.333 -18.848,1.832 -37.377,-5 -56,-5 3.823,-5.213 11.946,-6.601 18,-4.667 2.386,0.763 4.37,2.63 7,2.667 3.687,0.051 7.188,-2.333 11,-2.333 4.581,0 7.869,3.603 12,3.833 2.025,0.113 4.065,-1.683 6,-2.167 6.612,-1.653 12.897,-1.639 19,-5.333 -4.382,-7.37 -12.248,-1.656 -19,-1 -6.33,0.615 -10.304,-3.28 -16,-3.833 -4.282,-0.417 -8.555,2.932 -13,2.5 -6.993,-0.68 -10.857,-5.794 -17,-7.5 -4.915,-1.365 -10.71,2.116 -16,0.5 -5.601,-1.712 -8.76,-6.092 -13.333,-9.167 C 110.96,254.68 106.928,254.667 104,253 99.4189,250.391 95.3969,243.813 90.8333,242.167 87.0663,240.808 81.8042,243.63 78,244 c -5.5479,0.539 -11.4216,0 -17,0 v 1 l 24,9.333 6.6667,4.667 3.3333,4.5 11,0.833 9.333,8.167 L 130,275 c -3.497,1.289 -7.226,3.581 -11,4 -5.122,0.569 -10.006,-0.514 -15,-1 C 87.2544,276.372 69.9865,272.74 56,262.833 47.1222,256.545 37.0134,245.839 38,234 38.8447,223.863 46.3886,214.951 55,210.167 59.072,207.904 67.6308,204.077 65.8333,198 63.9435,191.61 54.6515,190.942 50,187.667 46.4025,185.133 44.6494,180.868 41,178.333 31.9059,172.018 23.9199,175.217 14,176 m 179,-1 c 2.278,8.658 12.007,17.29 21,18 -4.041,10.237 -9.973,3.774 -17,1 l -4,12 13,-2 -11,11.167 -6,-0.834 -6,4.667 20,5.833 8,1.667 6,-3.5 -1,-3 c 7.711,-2.029 14.381,-11.159 15,-19 h -11 c 1.008,-1.825 2.242,-4.364 4.167,-5.5 1.705,-1.007 3.974,-0.319 5.833,-0.5 5.444,-0.529 15.959,-2.435 18,-8 l -30,0.667 -16,-7 -9,-5.667 m 28,30 c -1.46,6.933 -9.567,15.956 -17,14 1.87,-6.459 10.21,-14 17,-14 m -56,28 c 1.634,1.709 3.707,2.116 6,3.167 2.752,1.261 5.918,3.072 9,3.5 8.565,1.189 21.148,-5.34 28,-9.667 l -19,-5.333 -8,-2.5 -6.333,4.833 -9.667,6 m -69,7 v 1 l 25,-3.333 14,-3.834 17,11.167 c -4.044,6.433 -15.464,6.481 -22,3.667 -2.86,-1.232 -4.915,-3.017 -8,-3.667 l 1,12 c 11.811,0 25.175,1.757 35,-6 0,6.826 -1.291,9.943 -7,14 v 1 L 165.5,265.667 165,250 c 3.507,1.477 8.65,-0.41 11.833,1.5 2.523,1.513 3.573,5.195 5.5,7.333 4.59,5.091 10.18,6.167 16.667,6.167 l -9,-9 -6.333,-11.833 L 168,243 v -1 l 5,-2 v -1 l -12,-5 v 6 c -6.1,-0.482 -11.053,-5.464 -14.833,-10 -1.506,-1.807 -2.847,-5.477 -5.167,-6.333 -3.541,-1.308 -10.013,3.673 -13,5.166 -10.199,5.1 -21.759,6.855 -32,11.167 m 94,-9 v 1 l -10,2 c 2.709,-4.679 5.258,-5.371 10,-3 z"
       id="path172" />
  </g>
</svg>
