<?xml version="1.0" encoding="utf-8" standalone="no"?>
<!DOCTYPE svg PUBLIC "-//W3C//DTD SVG 1.1//EN"
  "http://www.w3.org/Graphics/SVG/1.1/DTD/svg11.dtd">
<!-- Created with matplotlib (http://matplotlib.org/) -->
<svg height="272pt" version="1.1" viewBox="0 0 560 272" width="560pt" xmlns="http://www.w3.org/2000/svg" xmlns:xlink="http://www.w3.org/1999/xlink">
 <defs>
  <style type="text/css">
*{stroke-linecap:butt;stroke-linejoin:round;stroke-miterlimit:100000;}
  </style>
 </defs>
 <g id="figure_1">
  <g id="patch_1">
   <path d="M 0 272.16 
L 560.16 272.16 
L 560.16 0 
L 0 0 
z
" style="fill:#ffffff;"/>
  </g>
  <g id="axes_1">
   <g id="patch_2">
    <path d="M 7.2 264.96 
L 552.96 264.96 
L 552.96 7.2 
L 7.2 7.2 
z
" style="fill:#ffffff;"/>
   </g>
   <g id="line2d_1">
    <path clip-path="url(#p399f9813d9)" d="M 524.921739 -1 
L 511.076368 12.63058 
L 499.390683 23.809473 
L 489.718594 32.821695 
L 479.627421 41.974007 
L 470.333078 50.157395 
L 459.271756 59.553763 
L 449.482691 67.515373 
L 439.804735 75.003145 
L 434.433628 78.967029 
L 426.335836 84.638176 
L 420.414067 88.514408 
L 414.5027 92.113089 
L 409.64313 94.835951 
L 404.622963 97.390808 
L 399.769195 99.57615 
L 396.639095 100.819411 
L 391.890202 102.431147 
L 387.461462 103.610694 
L 383.601134 104.366547 
L 380.595893 104.772641 
L 376.955328 105.047565 
L 373.038166 105.079542 
L 368.863059 104.822154 
L 365.207175 104.363925 
L 361.740646 103.744199 
L 358.274116 102.960657 
L 353.993011 101.792622 
L 348.685608 100.083117 
L 341.749359 97.503507 
L 336.054494 95.166283 
L 325.602527 90.539642 
L 312.774369 84.550923 
L 290.236911 73.96242 
L 277.821779 68.352859 
L 267.32352 63.820383 
L 257.895038 59.948937 
L 250.668596 57.124727 
L 240.744138 53.46738 
L 230.700343 50.047967 
L 222.199862 47.392293 
L 213.324373 44.868242 
L 204.408059 42.604217 
L 197.589224 41.066869 
L 188.548094 39.302672 
L 179.90877 37.925759 
L 174.849638 37.267248 
L 167.284518 36.497053 
L 162.354573 36.13979 
L 154.347268 35.816367 
L 148.831291 35.788299 
L 141.005997 36.038764 
L 133.668385 36.603951 
L 128.794665 37.168427 
L 123.769761 37.918625 
L 118.986159 38.800785 
L 114.517513 39.781886 
L 107.390012 41.684471 
L 100.989807 43.779057 
L 96.145885 45.632098 
L 92.293045 47.285893 
L 87.954065 49.355792 
L 82.968756 52.031633 
L 77.715207 55.237207 
L 73.189815 58.359334 
L 68.666522 61.864324 
L 64.439866 65.54288 
L 60.987675 68.88585 
L 57.258436 72.902508 
L 54.005273 76.818573 
L 50.906192 80.987549 
L 48.728196 84.231044 
L 45.831023 89.052332 
L 44.022848 92.432308 
L 41.762629 97.19251 
L 40.017872 101.41802 
L 38.463371 105.764876 
L 37.297495 109.552349 
L 36.140166 114.01062 
L 35.214303 118.427616 
L 34.404173 123.568732 
L 33.941241 127.878548 
L 33.709776 131.341742 
L 33.594043 136.080001 
L 33.833073 142.887112 
L 34.311133 147.854081 
L 35.028223 152.696736 
L 35.984343 157.473026 
L 36.940464 161.322658 
L 38.490068 166.475754 
L 39.561612 169.532901 
L 40.990338 173.167501 
L 43.133426 177.93474 
L 45.085044 181.752739 
L 47.263084 185.571781 
L 48.790585 188.026001 
L 51.56173 192.094826 
L 54.332875 195.755525 
L 57.75476 199.819163 
L 61.379576 203.670619 
L 65.350873 207.446251 
L 69.271533 210.788849 
L 73.104589 213.738351 
L 77.549093 216.81439 
L 80.594089 218.73147 
L 85.235885 221.386789 
L 89.765768 223.696364 
L 95.415389 226.227013 
L 99.219561 227.731737 
L 105.590682 229.925283 
L 110.249928 231.290875 
L 117.097552 232.963607 
L 123.163347 234.138819 
L 127.57961 234.826186 
L 133.556382 235.544816 
L 139.259857 236.016642 
L 147.210091 236.34839 
L 155.883428 236.307014 
L 162.275843 236.024959 
L 167.655162 235.631388 
L 174.485305 234.935816 
L 181.390251 234.020389 
L 189.602544 232.668222 
L 196.954102 231.227442 
L 206.569669 229.032793 
L 216.245023 226.490164 
L 223.868474 224.264351 
L 230.941168 222.033537 
L 241.411495 218.45512 
L 251.254788 214.811075 
L 261.833211 210.618628 
L 274.628357 205.208552 
L 285.489343 200.37029 
L 301.13928 193.111056 
L 326.195381 181.349632 
L 337.501435 176.384593 
L 344.498673 173.593766 
L 351.598653 171.105913 
L 356.28176 169.717122 
L 360.893657 168.592774 
L 365.592851 167.737974 
L 368.485622 167.375374 
L 372.548054 167.095364 
L 376.76364 167.104545 
L 380.316975 167.357874 
L 384.586658 167.961626 
L 387.35666 168.525373 
L 390.867251 169.427724 
L 394.377842 170.530258 
L 398.454112 172.044839 
L 403.921988 174.435407 
L 409.551175 177.274788 
L 415.215512 180.465028 
L 421.299286 184.208809 
L 427.865971 188.562636 
L 435.584848 194.029921 
L 443.703825 200.123353 
L 454.196598 208.433706 
L 460.973012 214.025289 
L 472.890761 224.229691 
L 482.174899 232.471172 
L 492.036827 241.477668 
L 503.895468 252.623446 
L 514.47205 262.834452 
L 524.921933 273.16 
L 524.921933 273.16 
" style="fill:none;stroke:#0000ff;stroke-linecap:square;"/>
   </g>
   <g id="line2d_2">
    <path clip-path="url(#p399f9813d9)" d="M -27207.332308 11930.41721 
M -1 253.826695 
L 561.16 12.555213 
" style="fill:none;stroke:#ff0000;stroke-linecap:square;"/>
   </g>
   <g id="line2d_3">
    <path clip-path="url(#p399f9813d9)" d="M 467.146231 16854.324712 
M 467.146231 273.16 
L 467.146231 -1 
" style="fill:none;stroke:#ff0000;stroke-linecap:square;"/>
   </g>
   <g id="PathCollection_1">
    <path clip-path="url(#p399f9813d9)" d="M 353.547692 106.659612 
C 354.873708 106.659612 356.145592 106.132781 357.083226 105.195146 
C 358.020861 104.257512 358.547692 102.985628 358.547692 101.659612 
C 358.547692 100.333597 358.020861 99.061713 357.083226 98.124079 
C 356.145592 97.186444 354.873708 96.659612 353.547692 96.659612 
C 352.221677 96.659612 350.949793 97.186444 350.012158 98.124079 
C 349.074524 99.061713 348.547692 100.333597 348.547692 101.659612 
C 348.547692 102.985628 349.074524 104.257512 350.012158 105.195146 
C 350.949793 106.132781 352.221677 106.659612 353.547692 106.659612 
z
" style="fill:#008000;"/>
   </g>
   <g id="PathCollection_2">
    <path clip-path="url(#p399f9813d9)" d="M 80.667692 223.776024 
C 81.993708 223.776024 83.265592 223.249193 84.203226 222.311558 
C 85.140861 221.373924 85.667692 220.10204 85.667692 218.776024 
C 85.667692 217.450009 85.140861 216.178125 84.203226 215.24049 
C 83.265592 214.302856 81.993708 213.776024 80.667692 213.776024 
C 79.341677 213.776024 78.069793 214.302856 77.132158 215.24049 
C 76.194524 216.178125 75.667692 217.450009 75.667692 218.776024 
C 75.667692 220.10204 76.194524 221.373924 77.132158 222.311558 
C 78.069793 223.249193 79.341677 223.776024 80.667692 223.776024 
z
" style="fill:#008000;"/>
   </g>
   <g id="PathCollection_3">
    <path clip-path="url(#p399f9813d9)" d="M 467.146231 224.255347 
C 468.472247 224.255347 469.744131 223.728515 470.681765 222.790881 
C 471.6194 221.853246 472.146231 220.581362 472.146231 219.255347 
C 472.146231 217.929331 471.6194 216.657447 470.681765 215.719813 
C 469.744131 214.782178 468.472247 214.255347 467.146231 214.255347 
C 465.820216 214.255347 464.548332 214.782178 463.610698 215.719813 
C 462.673063 216.657447 462.146231 217.929331 462.146231 219.255347 
C 462.146231 220.581362 462.673063 221.853246 463.610698 222.790881 
C 464.548332 223.728515 465.820216 224.255347 467.146231 224.255347 
z
" style="fill:#008000;"/>
   </g>
   <g id="matplotlib.axis_1"/>
   <g id="matplotlib.axis_2"/>
   <g id="text_1">
    <!-- $\mathcal{P}$ -->
    <defs>
     <path d="M 34.796875 69 
C 20.703125 69 10 62.171875 5.90625 57.453125 
C 2.40625 53.4375 2.09375 50.53125 2.09375 50.328125 
C 2.09375 49.71875 2.5 49.53125 3.09375 49.53125 
C 4.703125 49.53125 7 50.96875 7.796875 51.46875 
C 9.90625 52.921875 10.203125 53.53125 10.796875 55.484375 
C 12.203125 59.609375 15 63.203125 27.59375 63.203125 
C 25.796875 40.734375 19.796875 18.875 11.40625 -2 
C 10.796875 -3.5 10.796875 -3.703125 10.796875 -3.796875 
C 10.796875 -4.09375 11.09375 -4.5 11.796875 -4.5 
C 13.40625 -4.5 18.203125 -2.296875 19.296875 0.3125 
C 24.5 12.546875 32.703125 35.625 35.703125 63.5 
L 40.90625 63.5 
C 53.09375 63.5 64.796875 58.71875 64.796875 48.5625 
C 64.796875 40.9375 57.59375 26.703125 38.203125 26.703125 
C 36.09375 26.703125 35 26.703125 32.203125 24.796875 
C 30.40625 23.53125 29.59375 22.375 29.59375 21.734375 
C 29.59375 21 30.203125 21 31.5 21 
C 49.703125 21 73.296875 36.46875 73.296875 53.046875 
C 73.296875 64.484375 59.796875 69 48.203125 69 
z
" id="CMSY10-80"/>
    </defs>
    <g transform="translate(311.566153846 106.64029406)scale(0.2 -0.2)">
     <use transform="scale(0.996264009963)" xlink:href="#CMSY10-80"/>
    </g>
   </g>
   <g id="text_2">
    <!-- $\mathcal{Q}$ -->
    <defs>
     <path d="M 22.296875 3 
C 20.40625 3 19.296875 3 16.796875 1.5 
C 16 1 13.59375 -0.59375 13.59375 -1.796875 
C 13.59375 -2.703125 14.09375 -2.703125 14.59375 -2.703125 
C 21.296875 -2.703125 25.40625 -3.59375 35.40625 -7.0625 
C 42.296875 -9.53125 49.40625 -12 57.296875 -12 
C 69 -12 78.703125 -1.828125 78.703125 2.203125 
C 78.703125 2.703125 78.296875 3 77.796875 3 
C 76.796875 3 74.703125 2.21875 73.09375 1.15625 
C 70.796875 -0.3125 70.59375 -1.015625 70.09375 -2.28125 
C 68.703125 -6.1875 66.59375 -6.5 63.90625 -6.5 
C 57.296875 -6.5 52.796875 -4.9375 38.40625 -0.203125 
C 55.703125 4.71875 77.5 22.09375 77.5 46.296875 
C 77.5 59.953125 70.09375 71 55.40625 71 
C 35 71 11.296875 50.03125 11.296875 29.15625 
C 11.296875 18.53125 17.59375 10.5 28.703125 10.5 
C 38.796875 10.5 50.203125 17.109375 50.203125 19.515625 
C 50.203125 20.109375 49.5 20.109375 49.09375 20.109375 
C 47.703125 20.109375 46 19.078125 44.59375 18.359375 
C 40.5 16 36.296875 16 35.296875 16 
C 26.296875 16 19.796875 23.03125 19.796875 33.375 
C 19.796875 45.921875 31.09375 65.5 48.796875 65.5 
C 61.40625 65.5 69 55.453125 69 42.09375 
C 69 32.140625 64.90625 20.78125 55.40625 12.34375 
C 48.90625 6.421875 41.59375 3 25.203125 3 
z
" id="CMSY10-81"/>
    </defs>
    <g transform="translate(38.6861538462 223.756705921)scale(0.2 -0.2)">
     <use transform="scale(0.996264009963)" xlink:href="#CMSY10-81"/>
    </g>
   </g>
   <g id="text_3">
    <!-- $\mathcal{P} + \mathcal{Q}$ -->
    <defs>
     <path d="M 37.703125 23 
L 64.203125 23 
C 65.59375 23 67.296875 23 67.296875 24.6875 
C 67.296875 26.484375 65.703125 26.484375 64.203125 26.484375 
L 37.703125 26.484375 
L 37.703125 52.90625 
C 37.703125 54.296875 37.703125 56 36 56 
C 34.203125 56 34.203125 54.40625 34.203125 52.90625 
L 34.203125 26.484375 
L 7.703125 26.484375 
C 6.296875 26.484375 4.59375 26.484375 4.59375 24.796875 
C 4.59375 23 6.203125 23 7.703125 23 
L 34.203125 23 
L 34.203125 -3.40625 
C 34.203125 -4.796875 34.203125 -6.5 35.90625 -6.5 
C 37.703125 -6.5 37.703125 -4.90625 37.703125 -3.40625 
z
" id="CMR17-43"/>
    </defs>
    <g transform="translate(488.137000679 224.236028401)scale(0.2 -0.2)">
     <use transform="scale(0.996264009963)" xlink:href="#CMSY10-80"/>
     <use transform="translate(99.626765839 0.0)scale(0.996264009963)" xlink:href="#CMR17-43"/>
     <use transform="translate(193.480761232 0.0)scale(0.996264009963)" xlink:href="#CMSY10-81"/>
    </g>
   </g>
  </g>
 </g>
 <defs>
  <clipPath id="p399f9813d9">
   <rect height="257.76" width="545.76" x="7.2" y="7.2"/>
  </clipPath>
 </defs>
</svg>
